HIERARCHY
ROOT Hips
{
    OFFSET 0.000000 0.000000 0.000000
    CHANNELS 6 Xposition Yposition Zposition Zrotation Xrotation Yrotation
    JOINT Spine
    {
        OFFSET -0.000000 7.236184 0.000000
        CHANNELS 3 Zrotation Xrotation Yrotation
        JOINT Spine1
        {
            OFFSET -0.000000 20.420147 0.000000
            CHANNELS 3 Zrotation Xrotation Yrotation
            JOINT Neck
            {
                OFFSET -0.000000 20.336288 1.848754
                CHANNELS 3 Zrotation Xrotation Yrotation
                JOINT Head
                {
                    OFFSET -0.000000 12.354461 -1.764923
                    CHANNELS 3 Zrotation Xrotation Yrotation
                    End Site
                    {
                        OFFSET -0.000000 22.061537 0.000000
                    }
                }
            }
            JOINT LeftShoulder
            {
                OFFSET 3.573296 18.396038 -0.314103
                CHANNELS 3 Zrotation Xrotation Yrotation
                JOINT LeftArm
                {
                    OFFSET 10.880760 0.000000 0.000000
                    CHANNELS 3 Zrotation Xrotation Yrotation
                    JOINT LeftForeArm
                    {
                        OFFSET 27.185530 0.000000 0.000000
                        CHANNELS 3 Zrotation Xrotation Yrotation
                        JOINT LeftHand
                        {
                            OFFSET 27.825975 0.000000 0.000000
                            CHANNELS 3 Zrotation Xrotation Yrotation
                            End Site
                            {
                                OFFSET 13.236923 0.000000 0.000000
                            }
                        }
                    }
                }
            }
            JOINT RightShoulder
            {
                OFFSET -3.474926 18.396038 -0.314103
                CHANNELS 3 Zrotation Xrotation Yrotation
                JOINT RightArm
                {
                    OFFSET -10.880760 0.000000 0.000000
                    CHANNELS 3 Zrotation Xrotation Yrotation
                    JOINT RightForeArm
                    {
                        OFFSET -27.185530 0.000000 0.000000
                        CHANNELS 3 Zrotation Xrotation Yrotation
                        JOINT RightHand
                        {
                            OFFSET -27.825975 0.000000 0.000000
                            CHANNELS 3 Zrotation Xrotation Yrotation
                            End Site
                            {
                                OFFSET -13.236923 0.000000 0.000000
                            }
                        }
                    }
                }
            }
        }
    }
    JOINT LeftUpLeg
    {
        OFFSET 8.824615 0.000000 0.000000
        CHANNELS 3 Zrotation Xrotation Yrotation
        JOINT LeftLeg
        {
            OFFSET -0.000000 -35.111282 0.000000
            CHANNELS 3 Zrotation Xrotation Yrotation
            JOINT LeftFoot
            {
                OFFSET -0.000000 -42.324711 0.000000
                CHANNELS 3 Zrotation Xrotation Yrotation
                JOINT LeftToeBase
                {
                    OFFSET -0.000000 -5.735999 13.236923
                    CHANNELS 3 Zrotation Xrotation Yrotation
                    End Site
                    {
                        OFFSET -0.000000 0.000000 3.529846
                    }
                }
            }
        }
    }
    JOINT RightUpLeg
    {
        OFFSET -8.824615 0.000000 0.000000
        CHANNELS 3 Zrotation Xrotation Yrotation
        JOINT RightLeg
        {
            OFFSET -0.000000 -35.111282 0.000000
            CHANNELS 3 Zrotation Xrotation Yrotation
            JOINT RightFoot
            {
                OFFSET -0.000000 -42.324711 0.000000
                CHANNELS 3 Zrotation Xrotation Yrotation
                JOINT RightToeBase
                {
                    OFFSET -0.000000 -5.735999 13.236923
                    CHANNELS 3 Zrotation Xrotation Yrotation
                    End Site
                    {
                        OFFSET -0.000000 0.000000 3.529846
                    }
                }
            }
        }
    }
}
MOTION
Frames:    10
Frame Time:    0.008333
-23.066273    79.917366    104.146286    -0.511100    -3.609128    -174.065018    -1.640316    -7.852007    0.776836    -0.745929    5.946399    0.928154    3.742569    6.818619    -2.958811    6.443971    -10.101851    -1.933679    1.643207    18.073730    -4.684774    -36.871841    48.878464    -48.480896    -1.040319    -5.373459    -17.036016    18.678234    -5.254292    1.675031    7.673129    18.883362    -4.344825    31.398716    49.405018    47.974667    -0.114763    -16.183249    25.876678    -16.126339    -15.314120    -6.182157    0.507674    -9.470528    -5.048788    -0.980103    18.932684    -4.892116    -1.497634    -11.435153    -4.363442    -0.352819    -0.402928    0.391372    -3.916553    -1.189910    0.566819    3.977098    6.007114    4.401029    -0.555475    -6.197147    -16.059471    -1.183829    -0.404908    1.281110    
-23.075911    79.914902    104.131104    -0.508146    -3.612329    -174.076248    -1.642154    -7.848416    0.787370    -0.745874    5.952782    0.938860    3.723758    6.819656    -3.011786    6.485147    -10.152563    -1.974946    1.666744    18.034859    -4.695208    -36.953178    48.875889    -48.410568    -1.054370    -5.397180    -17.028439    18.647102    -5.271900    1.727629    7.666275    18.878151    -4.314329    31.251068    49.414249    48.162910    -0.154280    -16.200718    25.855057    -16.175253    -15.321059    -6.176653    0.489782    -9.496153    -5.056852    -0.961689    19.003054    -4.911167    -1.485535    -11.478561    -4.328650    -0.358244    -0.379281    0.397373    -3.921833    -1.194024    0.566965    3.982578    6.028882    4.424040    -0.551096    -6.218706    -16.072842    -1.184732    -0.403842    1.282085    
-23.085442    79.912483    104.116142    -0.505163    -3.615560    -174.086700    -1.643896    -7.845207    0.797676    -0.745531    5.959697    0.949209    3.704820    6.820255    -3.064020    6.525811    -10.202897    -2.015556    1.688293    17.999569    -4.704220    -37.028782    48.870281    -48.344730    -1.068419    -5.421219    -17.023737    18.614573    -5.289824    1.780899    7.658988    18.873013    -4.284334    31.107233    49.422543    48.345684    -0.192774    -16.216166    25.836061    -16.221327    -15.326259    -6.172420    0.472633    -9.519854    -5.064172    -0.943910    19.068920    -4.927596    -1.474189    -11.519323    -4.297954    -0.363525    -0.355897    0.403213    -3.926853    -1.197942    0.566527    3.987524    6.050223    4.446284    -0.546555    -6.240038    -16.085567    -1.185917    -0.402035    1.283363    
-23.094927    79.910103    104.101326    -0.501874    -3.618787    -174.095917    -1.645446    -7.842314    0.807660    -0.744360    5.967558    0.959285    3.685272    6.819539    -3.115855    6.566051    -10.252788    -2.055830    1.706595    17.970016    -4.711185    -37.095486    48.858997    -48.285625    -1.082801    -5.446259    -17.024588    18.578564    -5.308542    1.836419    7.650608    18.867901    -4.254714    30.967945    49.429852    48.521828    -0.229936    -16.228752    25.822023    -16.263237    -15.328724    -6.170575    0.456644    -9.540783    -5.069992    -0.926731    19.128613    -4.940478    -1.463865    -11.556472    -4.273491    -0.368801    -0.332493    0.409048    -3.931442    -1.201499    0.565706    3.992036    6.071039    4.467985    -0.541910    -6.261241    -16.098537    -1.187679    -0.400151    1.285267    
-23.104309    79.907784    104.086815    -0.498409    -3.622028    -174.103378    -1.646695    -7.840072    0.817177    -0.742554    5.976743    0.968745    3.665268    6.817505    -3.166531    6.605477    -10.302098    -2.095099    1.721305    17.947695    -4.714991    -37.150745    48.841389    -48.235790    -1.096869    -5.472084    -17.033285    18.537857    -5.327790    1.894487    7.640821    18.862749    -4.225918    30.837004    49.435993    48.686596    -0.264642    -16.237652    25.815720    -16.299124    -15.327929    -6.171809    0.441837    -9.559046    -5.074519    -0.910439    19.181765    -4.949831    -1.454778    -11.589480    -4.255468    -0.373842    -0.310163    0.414623    -3.935657    -1.204399    0.563944    3.995934    6.090816    4.488844    -0.537374    -6.282014    -16.111506    -1.190128    -0.397467    1.287912    
-23.113918    79.905464    104.072166    -0.494521    -3.625374    -174.108887    -1.647485    -7.838357    0.826257    -0.739941    5.987793    0.977894    3.643951    6.813377    -3.217538    6.645260    -10.352235    -2.134486    1.732492    17.932365    -4.715163    -37.195724    48.816162    -48.194130    -1.110726    -5.499115    -17.052423    18.490015    -5.347630    1.957729    7.629236    18.857374    -4.197499    30.711107    49.440998    48.843735    -0.297194    -16.243093    25.819477    -16.329111    -15.323912    -6.176718    0.427286    -9.576849    -5.078168    -0.893774    19.233219    -4.957969    -1.446397    -11.620877    -4.241428    -0.378823    -0.287557    0.420130    -3.939476    -1.206615    0.560964    3.999350    6.109805    4.508773    -0.533067    -6.302670    -16.124359    -1.193449    -0.393829    1.291500    
-23.123568    79.903214    104.057755    -0.490384    -3.628714    -174.112000    -1.647815    -7.837327    0.834754    -0.736440    6.000628    0.986238    3.621467    6.807510    -3.267424    6.684762    -10.402203    -2.172727    1.740133    17.924580    -4.711374    -37.229427    48.783764    -48.161873    -1.123559    -5.525899    -17.084042    18.435215    -5.366640    2.025645    7.615493    18.851643    -4.170155    30.596001    49.444710    48.986542    -0.325939    -16.244919    25.835869    -16.351183    -15.317041    -6.184855    0.412881    -9.595475    -5.081859    -0.877075    19.285042    -4.966256    -1.438706    -11.651390    -4.229395    -0.383339    -0.266147    0.425122    -3.942879    -1.207827    0.556618    4.002007    6.127464    4.527023    -0.529125    -6.322724    -16.136589    -1.197356    -0.389375    1.295720    
-23.133396    79.901031    104.043449    -0.485994    -3.632151    -174.112534    -1.647467    -7.837262    0.842442    -0.732443    6.015843    0.993867    3.597962    6.799181    -3.316385    6.723924    -10.452008    -2.210029    1.745297    17.922829    -4.703464    -37.254478    48.745056    -48.137325    -1.134641    -5.551488    -17.130394    18.372572    -5.383640    2.099255    7.599674    18.845245    -4.143640    30.491220    49.447090    49.115173    -0.350746    -16.243359    25.867252    -16.364857    -15.307615    -6.195981    0.397814    -9.616275    -5.086543    -0.859592    19.339766    -4.975582    -1.431437    -11.682187    -4.217719    -0.387376    -0.245980    0.429583    -3.946023    -1.207940    0.550952    4.004166    6.143439    4.543263    -0.525478    -6.341894    -16.148069    -1.201779    -0.384667    1.300499    
-23.143476    79.898888    104.029167    -0.481289    -3.635546    -174.110275    -1.646389    -7.838089    0.849393    -0.727744    6.033637    1.000598    3.572822    6.788505    -3.364499    6.763511    -10.502113    -2.246246    1.749245    17.925444    -4.691416    -37.274044    48.701088    -48.118649    -1.143205    -5.574201    -17.193678    18.301430    -5.396862    2.178785    7.581139    18.838428    -4.118103    30.397692    49.447693    49.229446    -0.371710    -16.238056    25.915545    -16.369316    -15.295414    -6.209038    0.381898    -9.639888    -5.093545    -0.841462    19.399145    -4.985647    -1.424459    -11.714212    -4.205504    -0.390846    -0.227147    0.433416    -3.948946    -1.206605    0.544004    4.005942    6.157606    4.557561    -0.521991    -6.360204    -16.158976    -1.206647    -0.379726    1.305757    
-23.153624    79.896820    104.015228    -0.476407    -3.638973    -174.105301    -1.644573    -7.839919    0.855369    -0.722603    6.053789    1.006315    3.546904    6.775602    -3.410558    6.802318    -10.551369    -2.280518    1.753313    17.930168    -4.675879    -37.291389    48.654556    -48.103695    -1.147964    -5.591655    -17.274193    18.223263    -5.404152    2.261593    7.560561    18.830980    -4.093906    30.318104    49.446232    49.325726    -0.388786    -16.228340    25.981504    -16.363861    -15.280041    -6.222535    0.365344    -9.666080    -5.104150    -0.823523    19.461924    -4.994877    -1.417789    -11.746702    -4.192911    -0.393683    -0.210080    0.436549    -3.951841    -1.203883    0.536249    4.007726    6.169455    4.569954    -0.518975    -6.377160    -16.169748    -1.211855    -0.374278    1.311383    
